<?xml version="1.0" standalone="no"?>
<!DOCTYPE svg PUBLIC "-//W3C//DTD SVG 20010904//EN"
 "http://www.w3.org/TR/2001/REC-SVG-20010904/DTD/svg10.dtd">
<svg version="1.0" xmlns="http://www.w3.org/2000/svg"
 width="700.000000pt" height="700.000000pt" viewBox="0 0 700.000000 700.000000"
 preserveAspectRatio="xMidYMid meet">
<metadata>
Created by potrace 1.14, written by Peter Selinger 2001-2017
</metadata>
<g transform="translate(0.000000,700.000000) scale(0.100000,-0.100000)"
fill="#000000" stroke="none">
<path d="M3 5108 c4 -2025 1 -1927 52 -2218 100 -576 347 -1117 729 -1595 102
-129 382 -409 511 -511 670 -536 1479 -809 2310 -781 625 22 1197 192 1725
514 228 139 412 284 618 487 588 576 935 1293 1034 2131 7 62 13 220 13 365 0
326 -24 535 -95 830 -272 1129 -1118 2070 -2215 2463 -227 82 -470 141 -739
179 -150 22 -160 22 -2049 25 l-1898 4 4 -1893z m3846 1389 c376 -51 661 -137
986 -297 601 -296 1073 -768 1366 -1365 149 -304 232 -570 286 -915 26 -166
26 -675 0 -840 -90 -568 -295 -1040 -646 -1480 -98 -123 -319 -344 -446 -445
-458 -367 -1010 -593 -1595 -656 -161 -17 -477 -14 -639 5 -366 44 -664 132
-997 296 -302 149 -553 329 -794 570 -529 528 -832 1202 -880 1956 -11 182
-14 3176 -3 3188 4 4 734 5 1623 3 1438 -3 1629 -6 1739 -20z"/>
<path d="M1732 5636 c-71 -18 -187 -76 -245 -125 -177 -148 -258 -375 -216
-607 15 -82 76 -208 137 -280 67 -81 180 -156 285 -190 101 -32 245 -37 344
-11 143 38 287 141 369 265 53 79 94 204 100 304 20 291 -185 571 -471 643
-71 18 -229 18 -303 1z m215 -483 c97 -46 98 -199 2 -249 -97 -49 -220 33
-206 138 14 102 111 155 204 111z"/>
<path d="M3146 4370 c-299 -54 -509 -287 -524 -582 -6 -120 9 -198 54 -297 62
-134 162 -234 299 -301 102 -49 179 -64 303 -58 169 9 321 81 432 206 56 62
121 189 141 272 19 77 16 232 -5 305 -61 206 -231 379 -434 439 -66 19 -202
27 -266 16z m171 -500 c67 -40 85 -142 37 -200 -52 -61 -122 -77 -182 -40
-123 75 -76 260 68 260 27 0 58 -8 77 -20z"/>
<path d="M4470 3086 c-193 -46 -347 -168 -429 -339 -47 -99 -61 -160 -61 -272
0 -112 14 -173 62 -275 54 -114 167 -228 279 -283 241 -119 525 -74 714 111
335 329 208 884 -237 1039 -89 31 -242 40 -328 19z m207 -491 c60 -40 81 -131
43 -192 -28 -46 -65 -67 -119 -67 -131 0 -190 159 -93 247 42 39 120 44 169
12z"/>
</g>
</svg>
